<?xml version="1.0" encoding="utf-8"?>
<!-- Generator: Adobe Illustrator 16.0.0, SVG Export Plug-In . SVG Version: 6.00 Build 0)  -->
<!DOCTYPE svg PUBLIC "-//W3C//DTD SVG 1.1//EN" "http://www.w3.org/Graphics/SVG/1.1/DTD/svg11.dtd">
<svg version="1.1" id="Layer_1" xmlns="http://www.w3.org/2000/svg" xmlns:xlink="http://www.w3.org/1999/xlink" x="0px" y="0px"
	 width="960px" height="560px" viewBox="0 0 960 560" enable-background="new 0 0 960 560" xml:space="preserve">
<g>
	<g>
		<polygon fill="#007EE5" points="244.082,271.701 200.029,183 173,183.074 173,322 195,322 195,222.419 237.5,306 249.688,306 
			292,222.419 292,322 314,322 314,183.074 288.235,183 		"/>
		<path fill="#007EE5" d="M418,271.104c0,23.647-11.987,32.987-26.891,32.987c-13.314,0-24.109-9.141-24.109-31V220h-22v60.047
			c0,29.212,17.403,44.115,39.063,44.115c15.102,0,29.626-7.467,36.979-20.582L420.941,322H440V220h-22V271.104z"/>
		<path fill="#007EE5" d="M487.583,242.008L487.511,220H468v102h22v-43.344C490,252.227,503.011,241,524.074,241h4.372l0.397-22.563
			C509.966,218.437,494.737,226.707,487.583,242.008z"/>
		<path fill="#007EE5" d="M592.234,304.092c-18.679,0-32.589-14.308-32.589-32.987c0-18.48,13.91-32.788,32.589-32.788
			c16.493,0,24.641,11.128,24.641,11.128l14.903-14.506c0,0-13.114-16.692-39.146-16.692c-31,0-54.846,23.449-54.846,53.256
			c0,29.808,23.052,52.66,54.051,52.66c27.224,0,40.736-18.48,40.736-18.48l-14.903-13.91
			C617.67,291.771,609.92,304.092,592.234,304.092z"/>
		<path fill="#007EE5" d="M722,271.104c0,23.647-12.487,32.987-27.392,32.987c-13.313,0-24.608-9.141-24.608-31V220h-22v60.047
			c0,29.212,17.723,44.115,39.383,44.115c15.103,0,29.689-6.805,37.041-19.92L724.579,322H744V220h-22V271.104z"/>
		<rect x="772" y="183" fill="#007EE5" width="21" height="139"/>
	</g>
	<g>
		
			<linearGradient id="SVGID_1_" gradientUnits="userSpaceOnUse" x1="33.3931" y1="-691.0679" x2="-24.5333" y2="-772.4088" gradientTransform="matrix(1 0 0 -1 113.6582 -535)">
			<stop  offset="0" style="stop-color:#FFFFFF;stop-opacity:0"/>
			<stop  offset="0.0766" style="stop-color:#DCEEFB;stop-opacity:0.077"/>
			<stop  offset="0.2178" style="stop-color:#A3D0F6;stop-opacity:0.2188"/>
			<stop  offset="0.3592" style="stop-color:#71B7F1;stop-opacity:0.361"/>
			<stop  offset="0.4976" style="stop-color:#48A3EC;stop-opacity:0.5"/>
			<stop  offset="0.6323" style="stop-color:#2993E9;stop-opacity:0.6354"/>
			<stop  offset="0.7623" style="stop-color:#1287E7;stop-opacity:0.7661"/>
			<stop  offset="0.8856" style="stop-color:#0580E5;stop-opacity:0.89"/>
			<stop  offset="0.9951" style="stop-color:#007EE5"/>
		</linearGradient>
		<polygon fill="url(#SVGID_1_)" points="55.256,248 137.804,181 155.623,181 104.9,248 		"/>
		
			<linearGradient id="SVGID_2_" gradientUnits="userSpaceOnUse" x1="32.7129" y1="-766.0229" x2="-25.2139" y2="-847.3645" gradientTransform="matrix(1 0 0 1 113.6582 1112)">
			<stop  offset="0" style="stop-color:#FFFFFF;stop-opacity:0"/>
			<stop  offset="0.0766" style="stop-color:#DCEEFB;stop-opacity:0.077"/>
			<stop  offset="0.2178" style="stop-color:#A3D0F6;stop-opacity:0.2188"/>
			<stop  offset="0.3592" style="stop-color:#71B7F1;stop-opacity:0.361"/>
			<stop  offset="0.4976" style="stop-color:#48A3EC;stop-opacity:0.5"/>
			<stop  offset="0.6323" style="stop-color:#2993E9;stop-opacity:0.6354"/>
			<stop  offset="0.7623" style="stop-color:#1287E7;stop-opacity:0.7661"/>
			<stop  offset="0.8856" style="stop-color:#0580E5;stop-opacity:0.89"/>
			<stop  offset="0.9951" style="stop-color:#007EE5"/>
		</linearGradient>
		<polygon fill="url(#SVGID_2_)" points="55.256,255 137.804,322 155.623,322 104.9,255 		"/>
	</g>
	<g>
		
			<linearGradient id="SVGID_3_" gradientUnits="userSpaceOnUse" x1="816.3926" y1="-692.0684" x2="758.4658" y2="-773.4099" gradientTransform="matrix(-1 0 0 -1 1639.2207 -535)">
			<stop  offset="0" style="stop-color:#FFFFFF;stop-opacity:0"/>
			<stop  offset="0.0766" style="stop-color:#DCEEFB;stop-opacity:0.077"/>
			<stop  offset="0.2178" style="stop-color:#A3D0F6;stop-opacity:0.2188"/>
			<stop  offset="0.3592" style="stop-color:#71B7F1;stop-opacity:0.361"/>
			<stop  offset="0.4976" style="stop-color:#48A3EC;stop-opacity:0.5"/>
			<stop  offset="0.6323" style="stop-color:#2993E9;stop-opacity:0.6354"/>
			<stop  offset="0.7623" style="stop-color:#1287E7;stop-opacity:0.7661"/>
			<stop  offset="0.8856" style="stop-color:#0580E5;stop-opacity:0.89"/>
			<stop  offset="0.9951" style="stop-color:#007EE5"/>
		</linearGradient>
		<polygon fill="url(#SVGID_3_)" points="914.623,249 832.075,182 814.256,182 864.979,249 		"/>
		
			<linearGradient id="SVGID_4_" gradientUnits="userSpaceOnUse" x1="815.7129" y1="-765.0229" x2="757.7861" y2="-846.3645" gradientTransform="matrix(-1 0 0 1 1639.2207 1112)">
			<stop  offset="0" style="stop-color:#FFFFFF;stop-opacity:0"/>
			<stop  offset="0.0766" style="stop-color:#DCEEFB;stop-opacity:0.077"/>
			<stop  offset="0.2178" style="stop-color:#A3D0F6;stop-opacity:0.2188"/>
			<stop  offset="0.3592" style="stop-color:#71B7F1;stop-opacity:0.361"/>
			<stop  offset="0.4976" style="stop-color:#48A3EC;stop-opacity:0.5"/>
			<stop  offset="0.6323" style="stop-color:#2993E9;stop-opacity:0.6354"/>
			<stop  offset="0.7623" style="stop-color:#1287E7;stop-opacity:0.7661"/>
			<stop  offset="0.8856" style="stop-color:#0580E5;stop-opacity:0.89"/>
			<stop  offset="0.9951" style="stop-color:#007EE5"/>
		</linearGradient>
		<polygon fill="url(#SVGID_4_)" points="914.623,256 832.075,323 814.256,323 864.979,256 		"/>
	</g>
</g>
</svg>
