<?xml version="1.0" encoding="utf-8"?>
<!-- Generator: Adobe Illustrator 16.0.0, SVG Export Plug-In . SVG Version: 6.00 Build 0)  -->
<!DOCTYPE svg PUBLIC "-//W3C//DTD SVG 1.1//EN" "http://www.w3.org/Graphics/SVG/1.1/DTD/svg11.dtd">
<svg version="1.1" id="Layer_1" xmlns="http://www.w3.org/2000/svg" xmlns:xlink="http://www.w3.org/1999/xlink" x="0px" y="0px"
	 width="859.367px" height="143.162px" viewBox="0 0 859.367 143.162" enable-background="new 0 0 859.367 143.162"
	 xml:space="preserve">
<path fill="#007EE5" d="M139.942,41.419v99.755h-22.256V2.074L144.744,2l44.082,88.701L232.994,2l25.78,0.074v139.101h-22.058
	V41.419L194.431,125h-12.188L139.942,41.419z"/>
<path fill="#007EE5" d="M363.101,39.233h21.859v101.941h-19.275l0.059-18.508c-7.353,13.115-21.918,20.495-37.02,20.495
	c-21.66,0-39.147-14.903-39.147-44.115V39.233h21.859v52.858c0,21.859,11.128,31,24.442,31c14.903,0,27.224-9.34,27.224-32.987
	V39.233z"/>
<path fill="#007EE5" d="M412.78,39.233h19.474l0.072,21.891c7.154-15.301,22.383-23.878,41.261-23.878l-0.397,22.256h-4.372
	c-21.063,0-34.179,11.724-34.179,38.153v43.519H412.78V39.233z"/>
<path fill="#007EE5" d="M577.317,124.682c0,0-13.513,18.48-40.736,18.48c-30.999,0-54.051-22.853-54.051-52.66
	c0-29.807,23.846-53.256,54.846-53.256c26.032,0,39.146,16.692,39.146,16.692l-14.903,14.506c0,0-8.147-11.128-24.641-11.128
	c-18.679,0-32.589,14.308-32.589,32.788c0,18.68,13.91,32.987,32.589,32.987c17.686,0,25.436-12.32,25.436-12.32L577.317,124.682z"
	/>
<path fill="#007EE5" d="M666.74,39.233h21.858v101.941h-19.275l-0.037-17.845c-7.353,13.115-21.821,19.832-36.924,19.832
	c-21.66,0-39.147-14.903-39.147-44.115V39.233h21.859v52.858c0,21.859,11.128,31,24.441,31c14.904,0,27.225-9.34,27.225-32.987
	V39.233z"/>
<path fill="#007EE5" d="M716.576,2.074h21.007v139.101h-21.007V2.074z"/>
<linearGradient id="SVGID_1_" gradientUnits="userSpaceOnUse" x1="-21.8633" y1="-872.0679" x2="-79.7896" y2="-953.4088" gradientTransform="matrix(1 0 0 -1 113.6582 -897)">
	<stop  offset="0" style="stop-color:#FFFFFF;stop-opacity:0"/>
	<stop  offset="0.0766" style="stop-color:#DCEEFB;stop-opacity:0.077"/>
	<stop  offset="0.2178" style="stop-color:#A3D0F6;stop-opacity:0.2188"/>
	<stop  offset="0.3592" style="stop-color:#71B7F1;stop-opacity:0.361"/>
	<stop  offset="0.4976" style="stop-color:#48A3EC;stop-opacity:0.5"/>
	<stop  offset="0.6323" style="stop-color:#2993E9;stop-opacity:0.6354"/>
	<stop  offset="0.7623" style="stop-color:#1287E7;stop-opacity:0.7661"/>
	<stop  offset="0.8856" style="stop-color:#0580E5;stop-opacity:0.89"/>
	<stop  offset="0.9951" style="stop-color:#007EE5"/>
</linearGradient>
<polygon fill="url(#SVGID_1_)" points="0,67 82.547,0 100.366,0 49.644,67 "/>
<linearGradient id="SVGID_2_" gradientUnits="userSpaceOnUse" x1="-22.5435" y1="-947.0229" x2="-80.4703" y2="-1028.3645" gradientTransform="matrix(1 0 0 1 113.6582 1112)">
	<stop  offset="0" style="stop-color:#FFFFFF;stop-opacity:0"/>
	<stop  offset="0.0766" style="stop-color:#DCEEFB;stop-opacity:0.077"/>
	<stop  offset="0.2178" style="stop-color:#A3D0F6;stop-opacity:0.2188"/>
	<stop  offset="0.3592" style="stop-color:#71B7F1;stop-opacity:0.361"/>
	<stop  offset="0.4976" style="stop-color:#48A3EC;stop-opacity:0.5"/>
	<stop  offset="0.6323" style="stop-color:#2993E9;stop-opacity:0.6354"/>
	<stop  offset="0.7623" style="stop-color:#1287E7;stop-opacity:0.7661"/>
	<stop  offset="0.8856" style="stop-color:#0580E5;stop-opacity:0.89"/>
	<stop  offset="0.9951" style="stop-color:#007EE5"/>
</linearGradient>
<polygon fill="url(#SVGID_2_)" points="0,74 82.547,141 100.366,141 49.644,74 "/>
<linearGradient id="SVGID_3_" gradientUnits="userSpaceOnUse" x1="761.1362" y1="-873.0684" x2="703.2094" y2="-954.4099" gradientTransform="matrix(-1 0 0 -1 1528.708 -897)">
	<stop  offset="0" style="stop-color:#FFFFFF;stop-opacity:0"/>
	<stop  offset="0.0766" style="stop-color:#DCEEFB;stop-opacity:0.077"/>
	<stop  offset="0.2178" style="stop-color:#A3D0F6;stop-opacity:0.2188"/>
	<stop  offset="0.3592" style="stop-color:#71B7F1;stop-opacity:0.361"/>
	<stop  offset="0.4976" style="stop-color:#48A3EC;stop-opacity:0.5"/>
	<stop  offset="0.6323" style="stop-color:#2993E9;stop-opacity:0.6354"/>
	<stop  offset="0.7623" style="stop-color:#1287E7;stop-opacity:0.7661"/>
	<stop  offset="0.8856" style="stop-color:#0580E5;stop-opacity:0.89"/>
	<stop  offset="0.9951" style="stop-color:#007EE5"/>
</linearGradient>
<polygon fill="url(#SVGID_3_)" points="859.367,68 776.819,1 759,1 809.722,68 "/>
<linearGradient id="SVGID_4_" gradientUnits="userSpaceOnUse" x1="760.4565" y1="-946.0229" x2="702.5297" y2="-1027.3645" gradientTransform="matrix(-1 0 0 1 1528.708 1112)">
	<stop  offset="0" style="stop-color:#FFFFFF;stop-opacity:0"/>
	<stop  offset="0.0766" style="stop-color:#DCEEFB;stop-opacity:0.077"/>
	<stop  offset="0.2178" style="stop-color:#A3D0F6;stop-opacity:0.2188"/>
	<stop  offset="0.3592" style="stop-color:#71B7F1;stop-opacity:0.361"/>
	<stop  offset="0.4976" style="stop-color:#48A3EC;stop-opacity:0.5"/>
	<stop  offset="0.6323" style="stop-color:#2993E9;stop-opacity:0.6354"/>
	<stop  offset="0.7623" style="stop-color:#1287E7;stop-opacity:0.7661"/>
	<stop  offset="0.8856" style="stop-color:#0580E5;stop-opacity:0.89"/>
	<stop  offset="0.9951" style="stop-color:#007EE5"/>
</linearGradient>
<polygon fill="url(#SVGID_4_)" points="859.367,75 776.819,142 759,142 809.722,75 "/>
</svg>
