<?xml version="1.0" encoding="utf-8"?>
<!-- Generator: Adobe Illustrator 16.0.0, SVG Export Plug-In . SVG Version: 6.00 Build 0)  -->
<!DOCTYPE svg PUBLIC "-//W3C//DTD SVG 1.1//EN" "http://www.w3.org/Graphics/SVG/1.1/DTD/svg11.dtd">
<svg version="1.1" id="Layer_1" xmlns="http://www.w3.org/2000/svg" xmlns:xlink="http://www.w3.org/1999/xlink" x="0px" y="0px"
	 width="256px" height="288px" viewBox="0 0 256 288" enable-background="new 0 0 256 288" xml:space="preserve">
<path fill="#FFFFFF" d="M242.885,194.165c0,15.19-12.311,27.5-27.5,27.5c-5.45,0-10.54-1.59-14.811-4.34l-45.049,26.01
	c0.02,0.38,0.029,0.771,0.029,1.16c0,15.189-12.311,27.51-27.5,27.51c-15.19,0-27.5-12.32-27.5-27.51c0-0.39,0.01-0.78,0.03-1.16
	l-45.1-26.04c-4.29,2.771-9.39,4.37-14.87,4.37c-15.19,0-27.5-12.31-27.5-27.5c0-10.83,6.26-20.19,15.35-24.68v-50.971
	c-9.09-4.49-15.35-13.85-15.35-24.68c0-15.19,12.31-27.5,27.5-27.5c5.62,0,10.84,1.68,15.19,4.58l44.8-25.87
	c-0.04-0.51-0.05-1.03-0.05-1.55c0-15.18,12.31-27.5,27.5-27.5c15.189,0,27.5,12.32,27.5,27.5c0,0.52-0.01,1.04-0.05,1.55
	l44.75,25.84c4.34-2.88,9.54-4.55,15.13-4.55c15.189,0,27.5,12.31,27.5,27.5c0,10.78-6.2,20.11-15.24,24.62v51.09
	C236.685,174.055,242.885,183.385,242.885,194.165z"/>
<g>
	<path fill="#E535AB" d="M226.519,175.745c-1.855-1.069-3.798-1.84-5.782-2.318V114.98c2.011-0.479,3.97-1.249,5.843-2.327
		c10.497-6.1,14.081-19.479,8.05-29.976c-6.1-10.497-19.479-14.073-29.976-8.042c-1.891,1.095-3.551,2.43-4.979,3.935
		l-50.593-29.214c0.59-1.984,0.898-4.089,0.898-6.262c0-12.131-9.796-21.935-21.926-21.935c-12.131,0-21.935,9.804-21.935,21.935
		c0,2.164,0.317,4.26,0.899,6.236l-50.61,29.214c-1.42-1.497-3.071-2.823-4.953-3.91c-10.497-6.031-23.944-2.455-29.976,8.042
		c-6.031,10.497-2.446,23.944,8.05,29.976c1.874,1.078,3.833,1.848,5.843,2.327v58.446c-1.985,0.479-3.927,1.249-5.783,2.318
		c-10.497,6.091-14.081,19.479-8.041,29.967c6.031,10.496,19.411,14.081,29.967,8.041c1.865-1.077,3.499-2.387,4.911-3.857
		l50.584,29.205c-0.573,1.959-0.89,4.047-0.89,6.202c0,12.131,9.804,21.926,21.935,21.926c12.13,0,21.926-9.863,21.926-21.926
		c0-2.421-0.386-4.739-1.104-6.912l50.284-29.034c1.523,1.702,3.336,3.199,5.433,4.396c10.488,6.04,23.936,2.455,29.967-8.041
		C240.66,195.224,237.076,181.836,226.519,175.745z M46.665,173.683c-0.291-0.076-0.573-0.153-0.864-0.231v-58.522
		c5.578-1.385,10.608-4.953,13.696-10.317c3.089-5.364,3.653-11.489,2.079-16.998L112.28,58.34c0.205,0.206,0.411,0.419,0.625,0.616
		L46.665,173.683z M144.274,230.529c-4.013-4.397-9.787-7.16-16.22-7.16c-6.21,0-11.814,2.574-15.801,6.706l-50.635-29.231
		c0.086-0.282,0.154-0.564,0.231-0.847h132.409c0.121,0.479,0.249,0.958,0.403,1.438L144.274,230.529z M196.543,183.786
		c-1.06,1.848-1.83,3.798-2.309,5.783H61.875c-0.479-1.985-1.249-3.927-2.31-5.783c-1.078-1.856-2.387-3.491-3.858-4.901
		l66.238-114.719c1.934,0.556,3.987,0.855,6.108,0.855c2.13,0,4.183-0.3,6.125-0.864l66.23,114.701
		C198.922,180.271,197.622,181.921,196.543,183.786z M210.309,173.451c-0.282,0.069-0.564,0.146-0.848,0.224L143.214,58.947
		c0.205-0.197,0.402-0.385,0.59-0.59l50.721,29.292c-1.565,5.5-0.992,11.609,2.087,16.964c3.089,5.364,8.119,8.932,13.697,10.317
		V173.451z"/>
</g>
</svg>
