<svg width="456" height="236" viewBox="0 0 456 236" version="1.1" xmlns="http://www.w3.org/2000/svg" xmlns:xlink="http://www.w3.org/1999/xlink">
<title>Page 1</title>
<desc>Created using Figma</desc>
<g id="Canvas" transform="translate(-13311 -8594)">
<g id="Line">
<use xlink:href="#path0_stroke" transform="matrix(4.37073e-08 1 -1 4.37155e-08 13347.3 8594)" fill="#8B8888"/>
</g>
<g id="Line">
<use xlink:href="#path1_stroke" transform="matrix(-1 2.22045e-16 -2.22045e-16 -1 13767 8790.75)" fill="#8B8888"/>
</g>
<g id="Concurrency">
<use xlink:href="#path2_fill" transform="translate(13520 8812)" fill="#6B6767"/>
</g>
<g id="Project Development">
<use xlink:href="#path3_fill" transform="matrix(-4.37232e-08 -1 1 -4.36996e-08 13309 8764.59)" fill="#6B6767"/>
</g>
<g id="Group 3.1">
<g id="Line 2">
<use xlink:href="#path4_stroke" transform="matrix(-4.37074e-08 1 -1 -4.37156e-08 13374.5 8790.75)" fill="#959292"/>
</g>
<g id="Line 2.1">
<use xlink:href="#path4_stroke" transform="matrix(-4.37074e-08 1 -1 -4.37156e-08 13424.3 8790.75)" fill="#959292"/>
</g>
<g id="Line 2.2">
<use xlink:href="#path4_stroke" transform="matrix(-4.37074e-08 1 -1 -4.37156e-08 13474.2 8790.75)" fill="#959292"/>
</g>
<g id="Line 2.3">
<use xlink:href="#path4_stroke" transform="matrix(-4.37074e-08 1 -1 -4.37156e-08 13524 8790.75)" fill="#959292"/>
</g>
<g id="Line 2.4">
<use xlink:href="#path4_stroke" transform="matrix(-4.37074e-08 1 -1 -4.37156e-08 13573.9 8790.75)" fill="#959292"/>
</g>
<g id="Line 2.5">
<use xlink:href="#path4_stroke" transform="matrix(-4.37074e-08 1 -1 -4.37156e-08 13623.8 8790.75)" fill="#959292"/>
</g>
<g id="Line 2.6">
<use xlink:href="#path4_stroke" transform="matrix(-4.37074e-08 1 -1 -4.37156e-08 13673.6 8790.75)" fill="#959292"/>
</g>
<g id="Line 2.7">
<use xlink:href="#path4_stroke" transform="matrix(-4.37074e-08 1 -1 -4.37156e-08 13723.5 8790.75)" fill="#959292"/>
</g>
<g id="Line 2.9">
<use xlink:href="#path5_stroke" transform="matrix(1 7.68274e-14 -2.43805e-13 1 13340 8779.09)" fill="#959292"/>
</g>
<g id="Line 2.10">
<use xlink:href="#path5_stroke" transform="matrix(1 7.68274e-14 -2.43805e-13 1 13340 8751.11)" fill="#959292"/>
</g>
<g id="Line 2.11">
<use xlink:href="#path5_stroke" transform="matrix(1 7.68274e-14 -2.43805e-13 1 13340 8723.14)" fill="#959292"/>
</g>
<g id="Line 2.12">
<use xlink:href="#path5_stroke" transform="matrix(1 7.68274e-14 -2.43805e-13 1 13340 8695.16)" fill="#959292"/>
</g>
<g id="Line 2.13">
<use xlink:href="#path5_stroke" transform="matrix(1 7.68274e-14 -2.43805e-13 1 13340 8667.18)" fill="#959292"/>
</g>
<g id="Line 2.14">
<use xlink:href="#path5_stroke" transform="matrix(1 7.68274e-14 -2.43805e-13 1 13340 8639.2)" fill="#959292"/>
</g>
<g id="Line 2.15">
<use xlink:href="#path5_stroke" transform="matrix(1 4.2677e-13 1.06137e-13 1 13340 8611.23)" fill="#959292"/>
</g>
</g>
<g id="Rectangle">
<use xlink:href="#path6_fill" transform="translate(13349.1 8767.17)" fill="#2F80ED"/>
<use xlink:href="#path6_fill" transform="translate(13349.1 8767.17)" fill="url(#paint20_linear)"/>
<mask id="mask0_outline_ins">
<use xlink:href="#path6_fill" fill="white" transform="translate(13349.1 8767.17)"/>
</mask>
<g mask="url(#mask0_outline_ins)">
<use xlink:href="#path7_stroke_2x" transform="translate(13349.1 8767.17)" fill="#F2994A"/>
</g>
</g>
<g id="Rectangle">
<use xlink:href="#path8_fill" transform="translate(13398 8739.97)" fill="#2F80ED"/>
<use xlink:href="#path8_fill" transform="translate(13398 8739.97)" fill="url(#paint23_linear)"/>
<mask id="mask1_outline_ins">
<use xlink:href="#path8_fill" fill="white" transform="translate(13398 8739.97)"/>
</mask>
<g mask="url(#mask1_outline_ins)">
<use xlink:href="#path9_stroke_2x" transform="translate(13398 8739.97)" fill="#F2994A"/>
</g>
</g>
<g id="Rectangle">
<use xlink:href="#path10_fill" transform="translate(13447 8719.12)" fill="#2F80ED"/>
<use xlink:href="#path10_fill" transform="translate(13447 8719.12)" fill="url(#paint26_linear)"/>
<mask id="mask2_outline_ins">
<use xlink:href="#path10_fill" fill="white" transform="translate(13447 8719.12)"/>
</mask>
<g mask="url(#mask2_outline_ins)">
<use xlink:href="#path11_stroke_2x" transform="translate(13447 8719.12)" fill="#F2994A"/>
</g>
</g>
<g id="Rectangle">
<use xlink:href="#path12_fill" transform="translate(13495.9 8700.08)" fill="#2F80ED"/>
<use xlink:href="#path12_fill" transform="translate(13495.9 8700.08)" fill="url(#paint29_linear)"/>
<mask id="mask3_outline_ins">
<use xlink:href="#path12_fill" fill="white" transform="translate(13495.9 8700.08)"/>
</mask>
<g mask="url(#mask3_outline_ins)">
<use xlink:href="#path13_stroke_2x" transform="translate(13495.9 8700.08)" fill="#F2994A"/>
</g>
</g>
<g id="Rectangle">
<use xlink:href="#path14_fill" transform="translate(13544.9 8684.67)" fill="#2F80ED"/>
<use xlink:href="#path14_fill" transform="translate(13544.9 8684.67)" fill="url(#paint32_linear)"/>
<mask id="mask4_outline_ins">
<use xlink:href="#path14_fill" fill="white" transform="translate(13544.9 8684.67)"/>
</mask>
<g mask="url(#mask4_outline_ins)">
<use xlink:href="#path15_stroke_2x" transform="translate(13544.9 8684.67)" fill="#F2994A"/>
</g>
</g>
<g id="Rectangle">
<use xlink:href="#path16_fill" transform="translate(13593.8 8662.91)" fill="#2F80ED"/>
<use xlink:href="#path16_fill" transform="translate(13593.8 8662.91)" fill="url(#paint35_linear)"/>
<mask id="mask5_outline_ins">
<use xlink:href="#path16_fill" fill="white" transform="translate(13593.8 8662.91)"/>
</mask>
<g mask="url(#mask5_outline_ins)">
<use xlink:href="#path17_stroke_2x" transform="translate(13593.8 8662.91)" fill="#F2994A"/>
</g>
</g>
<g id="Rectangle">
<use xlink:href="#path18_fill" transform="translate(13642.8 8639.33)" fill="#2F80ED"/>
<use xlink:href="#path18_fill" transform="translate(13642.8 8639.33)" fill="url(#paint38_linear)"/>
<mask id="mask6_outline_ins">
<use xlink:href="#path18_fill" fill="white" transform="translate(13642.8 8639.33)"/>
</mask>
<g mask="url(#mask6_outline_ins)">
<use xlink:href="#path19_stroke_2x" transform="translate(13642.8 8639.33)" fill="#F2994A"/>
</g>
</g>
<g id="Rectangle">
<use xlink:href="#path20_fill" transform="translate(13691.8 8611.23)" fill="#2F80ED"/>
<use xlink:href="#path20_fill" transform="translate(13691.8 8611.23)" fill="url(#paint41_linear)"/>
<mask id="mask7_outline_ins">
<use xlink:href="#path20_fill" fill="white" transform="translate(13691.8 8611.23)"/>
</mask>
<g mask="url(#mask7_outline_ins)">
<use xlink:href="#path21_stroke_2x" transform="translate(13691.8 8611.23)" fill="#F2994A"/>
</g>
</g>
</g>
<defs>
<linearGradient id="paint20_linear" x1="0" y1="0" x2="1" y2="0" gradientUnits="userSpaceOnUse" gradientTransform="matrix(2.99765e-15 23.5733 -48.9554 1.44345e-15 48.9554 -1.44345e-15)">
<stop offset="0" stop-color="#2F80ED"/>
<stop offset="0.994475" stop-color="#4DB6F1"/>
</linearGradient>
<linearGradient id="paint23_linear" x1="0" y1="0" x2="1" y2="0" gradientUnits="userSpaceOnUse" gradientTransform="matrix(2.99765e-15 50.7733 -48.9554 3.10897e-15 48.9554 -3.10897e-15)">
<stop offset="0" stop-color="#2F80ED"/>
<stop offset="0.994475" stop-color="#4DB6F1"/>
</linearGradient>
<linearGradient id="paint26_linear" x1="0" y1="0" x2="1" y2="0" gradientUnits="userSpaceOnUse" gradientTransform="matrix(2.99765e-15 71.6267 -48.9554 4.38587e-15 48.9554 -4.38587e-15)">
<stop offset="0" stop-color="#2F80ED"/>
<stop offset="0.994475" stop-color="#4DB6F1"/>
</linearGradient>
<linearGradient id="paint29_linear" x1="0" y1="0" x2="1" y2="0" gradientUnits="userSpaceOnUse" gradientTransform="matrix(2.99765e-15 90.6667 -48.9554 5.55173e-15 48.9554 -5.55173e-15)">
<stop offset="0" stop-color="#2F80ED"/>
<stop offset="0.994475" stop-color="#4DB6F1"/>
</linearGradient>
<linearGradient id="paint32_linear" x1="0" y1="0" x2="1" y2="0" gradientUnits="userSpaceOnUse" gradientTransform="matrix(2.99765e-15 106.08 -48.9554 6.49553e-15 48.9554 -6.49553e-15)">
<stop offset="0" stop-color="#2F80ED"/>
<stop offset="0.994475" stop-color="#4DB6F1"/>
</linearGradient>
<linearGradient id="paint35_linear" x1="0" y1="0" x2="1" y2="0" gradientUnits="userSpaceOnUse" gradientTransform="matrix(2.99765e-15 127.84 -48.9554 7.82794e-15 48.9554 -7.82794e-15)">
<stop offset="0" stop-color="#2F80ED"/>
<stop offset="0.994475" stop-color="#4DB6F1"/>
</linearGradient>
<linearGradient id="paint38_linear" x1="0" y1="0" x2="1" y2="0" gradientUnits="userSpaceOnUse" gradientTransform="matrix(2.99765e-15 151.413 -48.9554 9.27139e-15 48.9554 -9.27139e-15)">
<stop offset="0" stop-color="#2F80ED"/>
<stop offset="0.994475" stop-color="#4DB6F1"/>
</linearGradient>
<linearGradient id="paint41_linear" x1="0" y1="0" x2="1" y2="0" gradientUnits="userSpaceOnUse" gradientTransform="matrix(2.99765e-15 179.52 -48.9554 1.09924e-14 48.9554 -1.09924e-14)">
<stop offset="0" stop-color="#2F80ED"/>
<stop offset="0.994475" stop-color="#4DB6F1"/>
</linearGradient>
<path id="path0_stroke" d="M 0 0L 196.747 0L 196.747 -2L 0 -2L 0 0Z"/>
<path id="path1_stroke" d="M 0 0L 419.747 0L 419.747 -2L 0 -2L 0 0Z"/>
<path id="path2_fill" d="M 9.08203 10.6162C 8.9502 11.7441 8.53271 12.6157 7.82959 13.231C 7.13135 13.8413 6.20117 14.1465 5.03906 14.1465C 3.7793 14.1465 2.76855 13.6948 2.00684 12.7915C 1.25 11.8882 0.871582 10.6797 0.871582 9.16602L 0.871582 8.14062C 0.871582 7.14941 1.04736 6.27783 1.39893 5.52588C 1.75537 4.77393 2.2583 4.19775 2.90771 3.79736C 3.55713 3.39209 4.30908 3.18945 5.16357 3.18945C 6.29639 3.18945 7.20459 3.50684 7.88818 4.1416C 8.57178 4.77148 8.96973 5.64551 9.08203 6.76367L 7.66846 6.76367C 7.54639 5.91406 7.28027 5.29883 6.87012 4.91797C 6.46484 4.53711 5.896 4.34668 5.16357 4.34668C 4.26514 4.34668 3.55957 4.67871 3.04688 5.34277C 2.53906 6.00684 2.28516 6.95166 2.28516 8.17725L 2.28516 9.20996C 2.28516 10.3672 2.52686 11.2876 3.01025 11.9712C 3.49365 12.6548 4.16992 12.9966 5.03906 12.9966C 5.82031 12.9966 6.41846 12.8208 6.8335 12.4692C 7.25342 12.1128 7.53174 11.4951 7.66846 10.6162L 9.08203 10.6162ZM 10.437 9.96436C 10.437 9.18799 10.5884 8.48975 10.8911 7.86963C 11.1987 7.24951 11.6235 6.771 12.1655 6.43408C 12.7124 6.09717 13.335 5.92871 14.0332 5.92871C 15.1123 5.92871 15.9839 6.30225 16.6479 7.04932C 17.3169 7.79639 17.6514 8.79004 17.6514 10.0303L 17.6514 10.1255C 17.6514 10.897 17.5024 11.5903 17.2046 12.2056C 16.9116 12.8159 16.4893 13.292 15.9375 13.6338C 15.3906 13.9756 14.7607 14.1465 14.0479 14.1465C 12.9736 14.1465 12.1021 13.7729 11.4331 13.0259C 10.769 12.2788 10.437 11.29 10.437 10.0596L 10.437 9.96436ZM 11.7993 10.1255C 11.7993 11.0044 12.002 11.71 12.4072 12.2422C 12.8174 12.7744 13.3643 13.0405 14.0479 13.0405C 14.7363 13.0405 15.2832 12.772 15.6885 12.2349C 16.0937 11.6929 16.2964 10.936 16.2964 9.96436C 16.2964 9.09521 16.0889 8.39209 15.6738 7.85498C 15.2637 7.31299 14.7168 7.04199 14.0332 7.04199C 13.3643 7.04199 12.8247 7.30811 12.4146 7.84033C 12.0044 8.37256 11.7993 9.13428 11.7993 10.1255ZM 20.6323 6.0752L 20.6763 7.07129C 21.2817 6.30957 22.0728 5.92871 23.0493 5.92871C 24.7241 5.92871 25.5688 6.87354 25.5835 8.76318L 25.5835 14L 24.2285 14L 24.2285 8.75586C 24.2236 8.18457 24.0918 7.76221 23.833 7.48877C 23.5791 7.21533 23.1812 7.07861 22.6392 7.07861C 22.1997 7.07861 21.814 7.1958 21.4819 7.43018C 21.1499 7.66455 20.8911 7.97217 20.7056 8.35303L 20.7056 14L 19.3506 14L 19.3506 6.0752L 20.6323 6.0752ZM 30.8057 13.0405C 31.2891 13.0405 31.7114 12.894 32.0728 12.6011C 32.4341 12.3081 32.6343 11.9419 32.6733 11.5024L 33.9551 11.5024C 33.9307 11.9565 33.7744 12.3887 33.4863 12.7988C 33.1982 13.209 32.8125 13.5361 32.3291 13.7803C 31.8506 14.0244 31.3428 14.1465 30.8057 14.1465C 29.7266 14.1465 28.8672 13.7876 28.2275 13.0698C 27.5928 12.3472 27.2754 11.3608 27.2754 10.1108L 27.2754 9.88379C 27.2754 9.1123 27.417 8.42627 27.7002 7.82568C 27.9834 7.2251 28.3887 6.75879 28.916 6.42676C 29.4482 6.09473 30.0757 5.92871 30.7983 5.92871C 31.687 5.92871 32.4243 6.19482 33.0103 6.72705C 33.6011 7.25928 33.916 7.9502 33.9551 8.7998L 32.6733 8.7998C 32.6343 8.28711 32.439 7.86719 32.0874 7.54004C 31.7407 7.20801 31.311 7.04199 30.7983 7.04199C 30.1099 7.04199 29.5752 7.29102 29.1943 7.78906C 28.8184 8.28223 28.6304 8.99756 28.6304 9.93506L 28.6304 10.1914C 28.6304 11.1045 28.8184 11.8076 29.1943 12.3008C 29.5703 12.7939 30.1074 13.0405 30.8057 13.0405ZM 40.3711 13.2163C 39.8438 13.8364 39.0698 14.1465 38.0493 14.1465C 37.2046 14.1465 36.5601 13.9023 36.1157 13.4141C 35.6763 12.9209 35.4541 12.1934 35.4492 11.2314L 35.4492 6.0752L 36.8042 6.0752L 36.8042 11.1948C 36.8042 12.396 37.2925 12.9966 38.269 12.9966C 39.3042 12.9966 39.9927 12.6108 40.3345 11.8394L 40.3345 6.0752L 41.6895 6.0752L 41.6895 14L 40.4004 14L 40.3711 13.2163ZM 47.5854 7.29102C 47.3804 7.25684 47.1582 7.23975 46.9189 7.23975C 46.0303 7.23975 45.4272 7.61816 45.1099 8.375L 45.1099 14L 43.7549 14L 43.7549 6.0752L 45.0732 6.0752L 45.0952 6.99072C 45.5396 6.28272 46.1694 5.92871 46.9849 5.92871C 47.2485 5.92871 47.4487 5.96289 47.5854 6.03125L 47.5854 7.29102ZM 52.6685 7.29102C 52.4634 7.25684 52.2412 7.23975 52.002 7.23975C 51.1133 7.23975 50.5103 7.61816 50.1929 8.375L 50.1929 14L 48.8379 14L 48.8379 6.0752L 50.1562 6.0752L 50.1782 6.99072C 50.6226 6.28272 51.2524 5.92871 52.0679 5.92871C 52.3315 5.92871 52.5317 5.96289 52.6685 6.03125L 52.6685 7.29102ZM 57.063 14.1465C 55.9888 14.1465 55.1147 13.7949 54.4409 13.0918C 53.7671 12.3838 53.4302 11.439 53.4302 10.2573L 53.4302 10.0083C 53.4302 9.22217 53.5791 8.52148 53.877 7.90625C 54.1797 7.28613 54.5996 6.80273 55.1367 6.45605C 55.6787 6.10449 56.2646 5.92871 56.8945 5.92871C 57.9248 5.92871 58.7256 6.26807 59.2969 6.94678C 59.8682 7.62549 60.1538 8.59717 60.1538 9.86182L 60.1538 10.4258L 54.7852 10.4258C 54.8047 11.207 55.0317 11.8394 55.4663 12.3228C 55.9058 12.8013 56.4624 13.0405 57.1362 13.0405C 57.6147 13.0405 58.02 12.9429 58.3521 12.7476C 58.6841 12.5522 58.9746 12.2935 59.2236 11.9712L 60.0513 12.6157C 59.3872 13.6362 58.3911 14.1465 57.063 14.1465ZM 56.8945 7.04199C 56.3477 7.04199 55.8887 7.24219 55.5176 7.64258C 55.1465 8.03809 54.917 8.59473 54.8291 9.3125L 58.7988 9.3125L 58.7988 9.20996C 58.7598 8.52148 58.5742 7.98926 58.2422 7.61328C 57.9102 7.23242 57.4609 7.04199 56.8945 7.04199ZM 63.0103 6.0752L 63.0542 7.07129C 63.6597 6.30957 64.4507 5.92871 65.4272 5.92871C 67.1021 5.92871 67.9468 6.87354 67.9614 8.76318L 67.9614 14L 66.6064 14L 66.6064 8.75586C 66.6016 8.18457 66.4697 7.76221 66.2109 7.48877C 65.957 7.21533 65.5591 7.07861 65.0171 7.07861C 64.5776 7.07861 64.1919 7.1958 63.8599 7.43018C 63.5278 7.66455 63.269 7.97217 63.0835 8.35303L 63.0835 14L 61.7285 14L 61.7285 6.0752L 63.0103 6.0752ZM 73.1836 13.0405C 73.667 13.0405 74.0894 12.894 74.4507 12.6011C 74.812 12.3081 75.0122 11.9419 75.0513 11.5024L 76.333 11.5024C 76.3086 11.9565 76.1523 12.3887 75.8643 12.7988C 75.5762 13.209 75.1904 13.5361 74.707 13.7803C 74.2285 14.0244 73.7207 14.1465 73.1836 14.1465C 72.1045 14.1465 71.2451 13.7876 70.6055 13.0698C 69.9707 12.3472 69.6533 11.3608 69.6533 10.1108L 69.6533 9.88379C 69.6533 9.1123 69.7949 8.42627 70.0781 7.82568C 70.3613 7.2251 70.7666 6.75879 71.2939 6.42676C 71.8262 6.09473 72.4536 5.92871 73.1763 5.92871C 74.0649 5.92871 74.8022 6.19482 75.3882 6.72705C 75.979 7.25928 76.2939 7.9502 76.333 8.7998L 75.0513 8.7998C 75.0122 8.28711 74.8169 7.86719 74.4653 7.54004C 74.1187 7.20801 73.689 7.04199 73.1763 7.04199C 72.4878 7.04199 71.9531 7.29102 71.5723 7.78906C 71.1963 8.28223 71.0083 8.99756 71.0083 9.93506L 71.0083 10.1914C 71.0083 11.1045 71.1963 11.8076 71.5723 12.3008C 71.9482 12.7939 72.4854 13.0405 73.1836 13.0405ZM 80.4492 12.0151L 82.2949 6.0752L 83.7451 6.0752L 80.5591 15.2231C 80.0659 16.5415 79.2822 17.2007 78.208 17.2007L 77.9517 17.1787L 77.4463 17.0835L 77.4463 15.9849L 77.8125 16.0142C 78.2715 16.0142 78.6279 15.9214 78.8818 15.7358C 79.1406 15.5503 79.353 15.2109 79.519 14.7178L 79.8193 13.9121L 76.9922 6.0752L 78.4717 6.0752L 80.4492 12.0151Z"/>
<path id="path3_fill" d="M 2.64404 9.8252L 2.64404 14L 1.23779 14L 1.23779 3.33594L 5.1709 3.33594C 6.33789 3.33594 7.25098 3.63379 7.91016 4.22949C 8.57422 4.8252 8.90625 5.61377 8.90625 6.59521C 8.90625 7.63037 8.58154 8.42871 7.93213 8.99023C 7.2876 9.54688 6.3623 9.8252 5.15625 9.8252L 2.64404 9.8252ZM 2.64404 8.67529L 5.1709 8.67529C 5.92285 8.67529 6.49902 8.49951 6.89941 8.14795C 7.2998 7.7915 7.5 7.27881 7.5 6.60986C 7.5 5.9751 7.2998 5.46729 6.89941 5.08643C 6.49902 4.70557 5.94971 4.50781 5.25146 4.49316L 2.64404 4.49316L 2.64404 8.67529ZM 14.3188 7.29102C 14.1138 7.25684 13.8916 7.23975 13.6523 7.23975C 12.7637 7.23975 12.1606 7.61816 11.8433 8.375L 11.8433 14L 10.4883 14L 10.4883 6.0752L 11.8066 6.0752L 11.8286 6.99072C 12.2729 6.28272 12.9028 5.92871 13.7183 5.92871C 13.9819 5.92871 14.1821 5.96289 14.3188 6.03125L 14.3188 7.29102ZM 15.0659 9.96436C 15.0659 9.18799 15.2173 8.48975 15.52 7.86963C 15.8276 7.24951 16.2524 6.771 16.7944 6.43408C 17.3413 6.09717 17.9639 5.92871 18.6621 5.92871C 19.7412 5.92871 20.6128 6.30225 21.2769 7.04932C 21.9458 7.79639 22.2803 8.79004 22.2803 10.0303L 22.2803 10.1255C 22.2803 10.897 22.1313 11.5903 21.8335 12.2056C 21.5405 12.8159 21.1182 13.292 20.5664 13.6338C 20.0195 13.9756 19.3896 14.1465 18.6768 14.1465C 17.6025 14.1465 16.731 13.7729 16.062 13.0259C 15.3979 12.2788 15.0659 11.29 15.0659 10.0596L 15.0659 9.96436ZM 16.4282 10.1255C 16.4282 11.0044 16.6309 11.71 17.0361 12.2422C 17.4463 12.7744 17.9932 13.0405 18.6768 13.0405C 19.3652 13.0405 19.9121 12.772 20.3174 12.2349C 20.7227 11.6929 20.9253 10.936 20.9253 9.96436C 20.9253 9.09521 20.7178 8.39209 20.3027 7.85498C 19.8926 7.31299 19.3457 7.04199 18.6621 7.04199C 17.9932 7.04199 17.4536 7.30811 17.0435 7.84033C 16.6333 8.37256 16.4282 9.13428 16.4282 10.1255ZM 25.3784 6.0752L 25.3784 14.9155C 25.3784 16.439 24.6875 17.2007 23.3057 17.2007C 23.0078 17.2007 22.7319 17.1567 22.478 17.0688L 22.478 15.9849C 22.6343 16.0239 22.8394 16.0435 23.0933 16.0435C 23.396 16.0435 23.6255 15.9604 23.7817 15.7944C 23.9429 15.6333 24.0234 15.3501 24.0234 14.9448L 24.0234 6.0752L 25.3784 6.0752ZM 23.8843 3.97314C 23.8843 3.7583 23.9502 3.5752 24.082 3.42383C 24.2188 3.26758 24.4165 3.18945 24.6753 3.18945C 24.939 3.18945 25.1392 3.26514 25.2759 3.4165C 25.4126 3.56787 25.481 3.75342 25.481 3.97314C 25.481 4.19287 25.4126 4.37598 25.2759 4.52246C 25.1392 4.66895 24.939 4.74219 24.6753 4.74219C 24.4116 4.74219 24.2139 4.66895 24.082 4.52246C 23.9502 4.37598 23.8843 4.19287 23.8843 3.97314ZM 30.8569 14.1465C 29.7827 14.1465 28.9087 13.7949 28.2349 13.0918C 27.561 12.3838 27.2241 11.439 27.2241 10.2573L 27.2241 10.0083C 27.2241 9.22217 27.373 8.52148 27.6709 7.90625C 27.9736 7.28613 28.3936 6.80273 28.9307 6.45605C 29.4727 6.10449 30.0586 5.92871 30.6885 5.92871C 31.7188 5.92871 32.5195 6.26807 33.0908 6.94678C 33.6621 7.62549 33.9478 8.59717 33.9478 9.86182L 33.9478 10.4258L 28.5791 10.4258C 28.5986 11.207 28.8257 11.8394 29.2603 12.3228C 29.6997 12.8013 30.2563 13.0405 30.9302 13.0405C 31.4087 13.0405 31.814 12.9429 32.146 12.7476C 32.478 12.5522 32.7686 12.2935 33.0176 11.9712L 33.8452 12.6157C 33.1812 13.6362 32.1851 14.1465 30.8569 14.1465ZM 30.6885 7.04199C 30.1416 7.04199 29.6826 7.24219 29.3115 7.64258C 28.9404 8.03809 28.7109 8.59473 28.623 9.3125L 32.5928 9.3125L 32.5928 9.20996C 32.5537 8.52148 32.3682 7.98926 32.0361 7.61328C 31.7041 7.23242 31.2549 7.04199 30.6885 7.04199ZM 38.7012 13.0405C 39.1846 13.0405 39.6069 12.894 39.9683 12.6011C 40.3296 12.3081 40.5298 11.9419 40.5688 11.5024L 41.8506 11.5024C 41.8262 11.9565 41.6699 12.3887 41.3818 12.7988C 41.0938 13.209 40.708 13.5361 40.2246 13.7803C 39.7461 14.0244 39.2383 14.1465 38.7012 14.1465C 37.6221 14.1465 36.7627 13.7876 36.123 13.0698C 35.4883 12.3472 35.1709 11.3608 35.1709 10.1108L 35.1709 9.88379C 35.1709 9.1123 35.3125 8.42627 35.5957 7.82568C 35.8789 7.2251 36.2842 6.75879 36.8115 6.42676C 37.3437 6.09473 37.9712 5.92871 38.6938 5.92871C 39.5825 5.92871 40.3198 6.19482 40.9058 6.72705C 41.4966 7.25928 41.8115 7.9502 41.8506 8.7998L 40.5688 8.7998C 40.5298 8.28711 40.3345 7.86719 39.9829 7.54004C 39.6362 7.20801 39.2065 7.04199 38.6938 7.04199C 38.0054 7.04199 37.4707 7.29102 37.0898 7.78906C 36.7139 8.28223 36.5259 8.99756 36.5259 9.93506L 36.5259 10.1914C 36.5259 11.1045 36.7139 11.8076 37.0898 12.3008C 37.4658 12.7939 38.0029 13.0405 38.7012 13.0405ZM 45.2124 4.15625L 45.2124 6.0752L 46.6919 6.0752L 46.6919 7.12256L 45.2124 7.12256L 45.2124 12.0371C 45.2124 12.3545 45.2783 12.5938 45.4102 12.7549C 45.542 12.9111 45.7666 12.9893 46.084 12.9893C 46.2402 12.9893 46.4551 12.96 46.7285 12.9014L 46.7285 14C 46.3721 14.0977 46.0254 14.1465 45.6885 14.1465C 45.083 14.1465 44.6265 13.9634 44.3188 13.5972C 44.0112 13.231 43.8574 12.7109 43.8574 12.0371L 43.8574 7.12256L 42.4146 7.12256L 42.4146 6.0752L 43.8574 6.0752L 43.8574 4.15625L 45.2124 4.15625ZM 52.2144 14L 52.2144 3.33594L 55.2246 3.33594C 56.1523 3.33594 56.9727 3.54102 57.6855 3.95117C 58.3984 4.36133 58.9478 4.94482 59.3335 5.70166C 59.7241 6.4585 59.9219 7.32764 59.9268 8.30908L 59.9268 8.99023C 59.9268 9.99609 59.7314 10.8774 59.3408 11.6343C 58.9551 12.3911 58.4009 12.9722 57.6782 13.3774C 56.9604 13.7827 56.123 13.9902 55.166 14L 52.2144 14ZM 53.6206 4.49316L 53.6206 12.8501L 55.1001 12.8501C 56.1841 12.8501 57.0264 12.5132 57.627 11.8394C 58.2324 11.1655 58.5352 10.2061 58.5352 8.96094L 58.5352 8.33838C 58.5352 7.12744 58.2495 6.1875 57.6782 5.51855C 57.1118 4.84473 56.3062 4.50293 55.2612 4.49316L 53.6206 4.49316ZM 65.1343 14.1465C 64.0601 14.1465 63.186 13.7949 62.5122 13.0918C 61.8384 12.3838 61.5015 11.439 61.5015 10.2573L 61.5015 10.0083C 61.5015 9.22217 61.6504 8.52148 61.9482 7.90625C 62.251 7.28613 62.6709 6.80273 63.208 6.45605C 63.75 6.10449 64.3359 5.92871 64.9658 5.92871C 65.9961 5.92871 66.7969 6.26807 67.3682 6.94678C 67.9395 7.62549 68.2251 8.59717 68.2251 9.86182L 68.2251 10.4258L 62.8564 10.4258C 62.876 11.207 63.103 11.8394 63.5376 12.3228C 63.9771 12.8013 64.5337 13.0405 65.2075 13.0405C 65.686 13.0405 66.0913 12.9429 66.4233 12.7476C 66.7554 12.5522 67.0459 12.2935 67.2949 11.9712L 68.1226 12.6157C 67.4585 13.6362 66.4624 14.1465 65.1343 14.1465ZM 64.9658 7.04199C 64.4189 7.04199 63.96 7.24219 63.5889 7.64258C 63.2178 8.03809 62.9883 8.59473 62.9004 9.3125L 66.8701 9.3125L 66.8701 9.20996C 66.8311 8.52148 66.6455 7.98926 66.3135 7.61328C 65.9814 7.23242 65.5322 7.04199 64.9658 7.04199ZM 72.312 12.1616L 74.2749 6.0752L 75.6592 6.0752L 72.8174 14L 71.7847 14L 68.9136 6.0752L 70.2979 6.0752L 72.312 12.1616ZM 80.1489 14.1465C 79.0747 14.1465 78.2007 13.7949 77.5269 13.0918C 76.853 12.3838 76.5161 11.439 76.5161 10.2573L 76.5161 10.0083C 76.5161 9.22217 76.665 8.52148 76.9629 7.90625C 77.2656 7.28613 77.6855 6.80273 78.2227 6.45605C 78.7646 6.10449 79.3506 5.92871 79.9805 5.92871C 81.0107 5.92871 81.8115 6.26807 82.3828 6.94678C 82.9541 7.62549 83.2397 8.59717 83.2397 9.86182L 83.2397 10.4258L 77.8711 10.4258C 77.8906 11.207 78.1177 11.8394 78.5522 12.3228C 78.9917 12.8013 79.5483 13.0405 80.2222 13.0405C 80.7007 13.0405 81.106 12.9429 81.438 12.7476C 81.77 12.5522 82.0605 12.2935 82.3096 11.9712L 83.1372 12.6157C 82.4731 13.6362 81.4771 14.1465 80.1489 14.1465ZM 79.9805 7.04199C 79.4336 7.04199 78.9746 7.24219 78.6035 7.64258C 78.2324 8.03809 78.0029 8.59473 77.915 9.3125L 81.8848 9.3125L 81.8848 9.20996C 81.8457 8.52148 81.6602 7.98926 81.3281 7.61328C 80.9961 7.23242 80.5469 7.04199 79.9805 7.04199ZM 86.2866 14L 84.9316 14L 84.9316 2.75L 86.2866 2.75L 86.2866 14ZM 88.103 9.96436C 88.103 9.18799 88.2544 8.48975 88.5571 7.86963C 88.8647 7.24951 89.2896 6.771 89.8315 6.43408C 90.3784 6.09717 91.001 5.92871 91.6992 5.92871C 92.7783 5.92871 93.6499 6.30225 94.314 7.04932C 94.9829 7.79639 95.3174 8.79004 95.3174 10.0303L 95.3174 10.1255C 95.3174 10.897 95.1685 11.5903 94.8706 12.2056C 94.5776 12.8159 94.1553 13.292 93.6035 13.6338C 93.0566 13.9756 92.4268 14.1465 91.7139 14.1465C 90.6396 14.1465 89.7681 13.7729 89.0991 13.0259C 88.4351 12.2788 88.103 11.29 88.103 10.0596L 88.103 9.96436ZM 89.4653 10.1255C 89.4653 11.0044 89.668 11.71 90.0732 12.2422C 90.4834 12.7744 91.0303 13.0405 91.7139 13.0405C 92.4023 13.0405 92.9492 12.772 93.3545 12.2349C 93.7598 11.6929 93.9624 10.936 93.9624 9.96436C 93.9624 9.09521 93.7549 8.39209 93.3398 7.85498C 92.9297 7.31299 92.3828 7.04199 91.6992 7.04199C 91.0303 7.04199 90.4907 7.30811 90.0806 7.84033C 89.6704 8.37256 89.4653 9.13428 89.4653 10.1255ZM 103.711 10.1255C 103.711 11.3315 103.435 12.3032 102.883 13.0405C 102.332 13.7778 101.584 14.1465 100.642 14.1465C 99.6802 14.1465 98.9233 13.8413 98.3716 13.231L 98.3716 17.0469L 97.0166 17.0469L 97.0166 6.0752L 98.2544 6.0752L 98.3203 6.9541C 98.8721 6.27051 99.6387 5.92871 100.62 5.92871C 101.572 5.92871 102.324 6.2876 102.876 7.00537C 103.433 7.72314 103.711 8.72168 103.711 10.001L 103.711 10.1255ZM 102.356 9.97168C 102.356 9.07812 102.166 8.37256 101.785 7.85498C 101.404 7.3374 100.881 7.07861 100.217 7.07861C 99.397 7.07861 98.7817 7.44238 98.3716 8.16992L 98.3716 11.9565C 98.7769 12.6792 99.397 13.0405 100.232 13.0405C 100.881 13.0405 101.396 12.7842 101.777 12.2715C 102.163 11.7539 102.356 10.9873 102.356 9.97168ZM 106.714 6.0752L 106.75 6.9541C 107.332 6.27051 108.115 5.92871 109.102 5.92871C 110.21 5.92871 110.964 6.35352 111.365 7.20312C 111.628 6.82227 111.97 6.51465 112.39 6.28027C 112.815 6.0459 113.315 5.92871 113.892 5.92871C 115.63 5.92871 116.514 6.84912 116.543 8.68994L 116.543 14L 115.188 14L 115.188 8.77051C 115.188 8.2041 115.059 7.78174 114.8 7.50342C 114.541 7.22021 114.106 7.07861 113.496 7.07861C 112.993 7.07861 112.576 7.22998 112.244 7.53271C 111.912 7.83057 111.719 8.2334 111.665 8.74121L 111.665 14L 110.303 14L 110.303 8.80713C 110.303 7.65479 109.739 7.07861 108.611 7.07861C 107.722 7.07861 107.114 7.45703 106.787 8.21387L 106.787 14L 105.432 14L 105.432 6.0752L 106.714 6.0752ZM 121.882 14.1465C 120.808 14.1465 119.934 13.7949 119.26 13.0918C 118.586 12.3838 118.25 11.439 118.25 10.2573L 118.25 10.0083C 118.25 9.22217 118.398 8.52148 118.696 7.90625C 118.999 7.28613 119.419 6.80273 119.956 6.45605C 120.498 6.10449 121.084 5.92871 121.714 5.92871C 122.744 5.92871 123.545 6.26807 124.116 6.94678C 124.688 7.62549 124.973 8.59717 124.973 9.86182L 124.973 10.4258L 119.604 10.4258C 119.624 11.207 119.851 11.8394 120.286 12.3228C 120.725 12.8013 121.282 13.0405 121.956 13.0405C 122.434 13.0405 122.839 12.9429 123.171 12.7476C 123.503 12.5522 123.794 12.2935 124.043 11.9712L 124.871 12.6157C 124.207 13.6362 123.21 14.1465 121.882 14.1465ZM 121.714 7.04199C 121.167 7.04199 120.708 7.24219 120.337 7.64258C 119.966 8.03809 119.736 8.59473 119.648 9.3125L 123.618 9.3125L 123.618 9.20996C 123.579 8.52148 123.394 7.98926 123.062 7.61328C 122.729 7.23242 122.28 7.04199 121.714 7.04199ZM 127.83 6.0752L 127.874 7.07129C 128.479 6.30957 129.27 5.92871 130.247 5.92871C 131.921 5.92871 132.766 6.87354 132.781 8.76318L 132.781 14L 131.426 14L 131.426 8.75586C 131.421 8.18457 131.289 7.76221 131.03 7.48877C 130.776 7.21533 130.378 7.07861 129.836 7.07861C 129.397 7.07861 129.011 7.1958 128.679 7.43018C 128.347 7.66455 128.088 7.97217 127.903 8.35303L 127.903 14L 126.548 14L 126.548 6.0752L 127.83 6.0752ZM 136.663 4.15625L 136.663 6.0752L 138.142 6.0752L 138.142 7.12256L 136.663 7.12256L 136.663 12.0371C 136.663 12.3545 136.729 12.5938 136.86 12.7549C 136.992 12.9111 137.217 12.9893 137.534 12.9893C 137.69 12.9893 137.905 12.96 138.179 12.9014L 138.179 14C 137.822 14.0977 137.476 14.1465 137.139 14.1465C 136.533 14.1465 136.077 13.9634 135.769 13.5972C 135.461 13.231 135.308 12.7109 135.308 12.0371L 135.308 7.12256L 133.865 7.12256L 133.865 6.0752L 135.308 6.0752L 135.308 4.15625L 136.663 4.15625Z"/>
<path id="path4_stroke" d="M 0 0L 7.25333 0L 7.25333 -1L 0 -1L 0 0Z"/>
<path id="path5_stroke" d="M 0 0L 7.25265 0L 7.25265 -1L 0 -1L 0 0Z"/>
<path id="path6_fill" d="M 0 0L 48.9554 0L 48.9554 23.5733L 0 23.5733L 0 0Z"/>
<path id="path7_stroke_2x" d="M 0 0L 0 -1L -1 -1L -1 0L 0 0ZM 48.9554 0L 49.9554 0L 49.9554 -1L 48.9554 -1L 48.9554 0ZM 48.9554 23.5733L 48.9554 24.5733L 49.9554 24.5733L 49.9554 23.5733L 48.9554 23.5733ZM 0 23.5733L -1 23.5733L -1 24.5733L 0 24.5733L 0 23.5733ZM 0 1L 48.9554 1L 48.9554 -1L 0 -1L 0 1ZM 47.9554 0L 47.9554 23.5733L 49.9554 23.5733L 49.9554 0L 47.9554 0ZM 48.9554 22.5733L 0 22.5733L 0 24.5733L 48.9554 24.5733L 48.9554 22.5733ZM 1 23.5733L 1 0L -1 0L -1 23.5733L 1 23.5733Z"/>
<path id="path8_fill" d="M 0 0L 48.9554 0L 48.9554 50.7733L 0 50.7733L 0 0Z"/>
<path id="path9_stroke_2x" d="M 0 0L 0 -1L -1 -1L -1 0L 0 0ZM 48.9554 0L 49.9554 0L 49.9554 -1L 48.9554 -1L 48.9554 0ZM 48.9554 50.7733L 48.9554 51.7733L 49.9554 51.7733L 49.9554 50.7733L 48.9554 50.7733ZM 0 50.7733L -1 50.7733L -1 51.7733L 0 51.7733L 0 50.7733ZM 0 1L 48.9554 1L 48.9554 -1L 0 -1L 0 1ZM 47.9554 0L 47.9554 50.7733L 49.9554 50.7733L 49.9554 0L 47.9554 0ZM 48.9554 49.7733L 0 49.7733L 0 51.7733L 48.9554 51.7733L 48.9554 49.7733ZM 1 50.7733L 1 0L -1 0L -1 50.7733L 1 50.7733Z"/>
<path id="path10_fill" d="M 0 0L 48.9554 0L 48.9554 71.6267L 0 71.6267L 0 0Z"/>
<path id="path11_stroke_2x" d="M 0 0L 0 -1L -1 -1L -1 0L 0 0ZM 48.9554 0L 49.9554 0L 49.9554 -1L 48.9554 -1L 48.9554 0ZM 48.9554 71.6267L 48.9554 72.6267L 49.9554 72.6267L 49.9554 71.6267L 48.9554 71.6267ZM 0 71.6267L -1 71.6267L -1 72.6267L 0 72.6267L 0 71.6267ZM 0 1L 48.9554 1L 48.9554 -1L 0 -1L 0 1ZM 47.9554 0L 47.9554 71.6267L 49.9554 71.6267L 49.9554 0L 47.9554 0ZM 48.9554 70.6267L 0 70.6267L 0 72.6267L 48.9554 72.6267L 48.9554 70.6267ZM 1 71.6267L 1 0L -1 0L -1 71.6267L 1 71.6267Z"/>
<path id="path12_fill" d="M 0 0L 48.9554 0L 48.9554 90.6667L 0 90.6667L 0 0Z"/>
<path id="path13_stroke_2x" d="M 0 0L 0 -1L -1 -1L -1 0L 0 0ZM 48.9554 0L 49.9554 0L 49.9554 -1L 48.9554 -1L 48.9554 0ZM 48.9554 90.6667L 48.9554 91.6667L 49.9554 91.6667L 49.9554 90.6667L 48.9554 90.6667ZM 0 90.6667L -1 90.6667L -1 91.6667L 0 91.6667L 0 90.6667ZM 0 1L 48.9554 1L 48.9554 -1L 0 -1L 0 1ZM 47.9554 0L 47.9554 90.6667L 49.9554 90.6667L 49.9554 0L 47.9554 0ZM 48.9554 89.6667L 0 89.6667L 0 91.6667L 48.9554 91.6667L 48.9554 89.6667ZM 1 90.6667L 1 0L -1 0L -1 90.6667L 1 90.6667Z"/>
<path id="path14_fill" d="M 0 0L 48.9554 0L 48.9554 106.08L 0 106.08L 0 0Z"/>
<path id="path15_stroke_2x" d="M 0 0L 0 -1L -1 -1L -1 0L 0 0ZM 48.9554 0L 49.9554 0L 49.9554 -1L 48.9554 -1L 48.9554 0ZM 48.9554 106.08L 48.9554 107.08L 49.9554 107.08L 49.9554 106.08L 48.9554 106.08ZM 0 106.08L -1 106.08L -1 107.08L 0 107.08L 0 106.08ZM 0 1L 48.9554 1L 48.9554 -1L 0 -1L 0 1ZM 47.9554 0L 47.9554 106.08L 49.9554 106.08L 49.9554 0L 47.9554 0ZM 48.9554 105.08L 0 105.08L 0 107.08L 48.9554 107.08L 48.9554 105.08ZM 1 106.08L 1 0L -1 0L -1 106.08L 1 106.08Z"/>
<path id="path16_fill" d="M 0 0L 48.9554 0L 48.9554 127.84L 0 127.84L 0 0Z"/>
<path id="path17_stroke_2x" d="M 0 0L 0 -1L -1 -1L -1 0L 0 0ZM 48.9554 0L 49.9554 0L 49.9554 -1L 48.9554 -1L 48.9554 0ZM 48.9554 127.84L 48.9554 128.84L 49.9554 128.84L 49.9554 127.84L 48.9554 127.84ZM 0 127.84L -1 127.84L -1 128.84L 0 128.84L 0 127.84ZM 0 1L 48.9554 1L 48.9554 -1L 0 -1L 0 1ZM 47.9554 0L 47.9554 127.84L 49.9554 127.84L 49.9554 0L 47.9554 0ZM 48.9554 126.84L 0 126.84L 0 128.84L 48.9554 128.84L 48.9554 126.84ZM 1 127.84L 1 0L -1 0L -1 127.84L 1 127.84Z"/>
<path id="path18_fill" d="M 0 0L 48.9554 0L 48.9554 151.413L 0 151.413L 0 0Z"/>
<path id="path19_stroke_2x" d="M 0 0L 0 -1L -1 -1L -1 0L 0 0ZM 48.9554 0L 49.9554 0L 49.9554 -1L 48.9554 -1L 48.9554 0ZM 48.9554 151.413L 48.9554 152.413L 49.9554 152.413L 49.9554 151.413L 48.9554 151.413ZM 0 151.413L -1 151.413L -1 152.413L 0 152.413L 0 151.413ZM 0 1L 48.9554 1L 48.9554 -1L 0 -1L 0 1ZM 47.9554 0L 47.9554 151.413L 49.9554 151.413L 49.9554 0L 47.9554 0ZM 48.9554 150.413L 0 150.413L 0 152.413L 48.9554 152.413L 48.9554 150.413ZM 1 151.413L 1 0L -1 0L -1 151.413L 1 151.413Z"/>
<path id="path20_fill" d="M 0 0L 48.9554 0L 48.9554 179.52L 0 179.52L 0 0Z"/>
<path id="path21_stroke_2x" d="M 0 0L 0 -1L -1 -1L -1 0L 0 0ZM 48.9554 0L 49.9554 0L 49.9554 -1L 48.9554 -1L 48.9554 0ZM 48.9554 179.52L 48.9554 180.52L 49.9554 180.52L 49.9554 179.52L 48.9554 179.52ZM 0 179.52L -1 179.52L -1 180.52L 0 180.52L 0 179.52ZM 0 1L 48.9554 1L 48.9554 -1L 0 -1L 0 1ZM 47.9554 0L 47.9554 179.52L 49.9554 179.52L 49.9554 0L 47.9554 0ZM 48.9554 178.52L 0 178.52L 0 180.52L 48.9554 180.52L 48.9554 178.52ZM 1 179.52L 1 0L -1 0L -1 179.52L 1 179.52Z"/>
</defs>
</svg>

