<?xml version="1.0" encoding="utf-8"?>
<!-- Generator: Adobe Illustrator 16.0.0, SVG Export Plug-In . SVG Version: 6.00 Build 0)  -->
<!DOCTYPE svg PUBLIC "-//W3C//DTD SVG 1.1//EN" "http://www.w3.org/Graphics/SVG/1.1/DTD/svg11.dtd">
<svg version="1.1" id="svg3030" xmlns:svg="http://www.w3.org/2000/svg"
	 xmlns="http://www.w3.org/2000/svg" xmlns:xlink="http://www.w3.org/1999/xlink" x="0px" y="0px" width="112px" height="122px"
	 viewBox="240.485 18.512 112 122" enable-background="new 240.485 18.512 112 122" xml:space="preserve">
<path fill="#FFFFFF" d="M346.429,53.88l-0.011,1.203l-0.358,50.152v0.169c-0.032,2.236-1.16,4.198-2.869,5.391l-0.992,0.56
	l-43.264,24.56l-0.095,0.063l-0.771,0.433c-1.847,0.908-4.062,0.95-6.014-0.063l-0.506-0.295l-43.264-25.383l-0.95-0.569
	c-1.572-1.107-2.637-2.89-2.796-4.927l0.011-1.192l0.358-49.54v-0.032l0.01-1.392c0.232-2.11,1.446-3.926,3.175-4.97l0.391-0.221
	l43.813-24.866c0.116-0.074,0.254-0.147,0.38-0.222c0.949-0.517,2.036-0.813,3.186-0.813c1.107,0,2.163,0.275,3.081,0.761
	l0.653,0.379c0.011,0.011,0.021,0.021,0.032,0.021l43.264,25.403c0.105,0.053,0.211,0.115,0.306,0.18
	C345.015,49.744,346.26,51.664,346.429,53.88z"/>
<g>
	<path fill="#8FC63F" d="M295.484,28.658c-1.37,0-2.704,0.284-3.885,0.951l-37.337,21.563c-2.416,1.392-3.884,4.021-3.884,6.816
		v43.045c0,2.795,1.468,5.422,3.884,6.816l9.751,5.629c4.737,2.334,6.484,2.299,8.642,2.299c7.014,0,11.019-4.256,11.019-11.653
		V61.636c0-0.602-0.521-1.031-1.11-1.031h-4.677c-0.599,0-1.108,0.431-1.108,1.031v42.488c0,3.278-3.416,6.576-8.959,3.807
		l-10.146-5.945c-0.358-0.195-0.634-0.541-0.634-0.951V57.99c0-0.408,0.271-0.824,0.634-1.029l37.258-21.482
		c0.35-0.201,0.765-0.201,1.109,0l37.258,21.482c0.354,0.213,0.634,0.608,0.634,1.029v43.045c0,0.41-0.206,0.832-0.555,1.029
		l-37.337,21.483c-0.32,0.189-0.761,0.189-1.109,0l-9.592-5.708c-0.286-0.167-0.676-0.154-0.951,0
		c-2.647,1.502-3.146,1.676-5.629,2.537c-0.611,0.213-1.541,0.545,0.317,1.586l12.523,7.37c1.192,0.69,2.521,1.031,3.885,1.031
		c1.384,0,2.692-0.341,3.885-1.031l37.337-21.481c2.416-1.405,3.885-4.021,3.885-6.816V57.99c0-2.797-1.469-5.42-3.885-6.816
		L299.369,29.61C298.198,28.943,296.855,28.658,295.484,28.658L295.484,28.658z"/>
	<path fill="#8FC63F" d="M305.472,59.417c-10.632,0-16.965,4.524-16.965,12.05c0,8.163,6.285,10.405,16.489,11.415
		c12.208,1.194,13.158,2.986,13.158,5.391c0,4.168-3.322,5.945-11.178,5.945c-9.867,0-12.036-2.464-12.763-7.372
		c-0.085-0.526-0.491-0.951-1.03-0.951h-4.836c-0.596,0-1.109,0.512-1.109,1.109c0,6.282,3.419,13.715,19.738,13.715
		c11.814,0,18.629-4.64,18.629-12.765c0-8.055-5.505-10.217-16.964-11.731c-11.58-1.531-12.684-2.281-12.684-4.993
		c0-2.239,0.936-5.232,9.513-5.232c7.66,0,10.492,1.652,11.652,6.817c0.102,0.486,0.529,0.872,1.03,0.872h4.835
		c0.299,0,0.588-0.183,0.794-0.396c0.202-0.228,0.346-0.484,0.316-0.792C323.352,63.601,317.42,59.417,305.472,59.417
		L305.472,59.417z"/>
</g>
</svg>
