<?xml version="1.0" encoding="utf-8"?>
<!-- Generator: Adobe Illustrator 16.0.0, SVG Export Plug-In . SVG Version: 6.00 Build 0)  -->
<!DOCTYPE svg PUBLIC "-//W3C//DTD SVG 1.1//EN" "http://www.w3.org/Graphics/SVG/1.1/DTD/svg11.dtd">
<svg version="1.1" id="Layer_1" xmlns="http://www.w3.org/2000/svg" xmlns:xlink="http://www.w3.org/1999/xlink" x="0px" y="0px"
	 width="279.257px" height="266.167px" viewBox="0 -22.167 279.257 266.167" enable-background="new 0 -22.167 279.257 266.167"
	 xml:space="preserve">
<path fill="#FFFFFF" d="M-527.634,61.34c-0.011-0.022-0.022-0.033-0.022-0.056l0.012-0.012
	C-527.645,61.272-527.634,61.295-527.634,61.34z"/>
<path fill="#FFFFFF" d="M277.363,111.987c0,17.42-20.686,34.452-52.484,44.986c-1.68,0.558-3.402,1.093-5.156,1.612
	c0.625,2.518,1.184,4.989,1.662,7.413c6.279,31.706,1.443,57.769-13.434,66.381c-14.404,8.338-37.686,0.146-61.26-20.138
	c-2.563-2.211-5.063-4.491-7.498-6.841c-1.932,1.871-3.863,3.652-5.787,5.335c-24.336,21.272-49.329,30.1-64.219,21.513
	c-14.417-8.316-18.949-32.575-13.147-63.129c0.635-3.319,1.361-6.622,2.18-9.902c-2.519-0.718-5.021-1.501-7.5-2.345
	C20.131,146.418,0,129.178,0,111.987c0-16.643,18.753-32.689,48.119-42.926c3.282-1.144,6.712-2.218,10.265-3.228
	c-0.761-3.044-1.444-6.107-2.049-9.188C50.25,25.553,54.531,0.704,68.987-7.663c15.074-8.728,40.181,0.644,65.228,22.884
	c1.559,1.387,3.09,2.802,4.596,4.245c2.248-2.17,4.553-4.284,6.906-6.338c23.9-20.797,47.564-29.498,62.033-21.154
	c15.09,8.701,19.51,35.131,12.752,67.941c-0.422,2.038-0.883,4.069-1.381,6.09c3,0.862,5.977,1.8,8.93,2.813
	C258.006,79.129,277.363,95.284,277.363,111.987z"/>
<path fill="#61DAFB" d="M138.107,89.205c-12.521,0-22.672,10.15-22.672,22.671c0,12.521,10.151,22.671,22.672,22.671
	s22.67-10.149,22.67-22.671C160.777,99.355,150.629,89.205,138.107,89.205z M138.107,89.205c-12.521,0-22.672,10.15-22.672,22.671
	c0,12.521,10.151,22.671,22.672,22.671s22.67-10.149,22.67-22.671C160.777,99.355,150.629,89.205,138.107,89.205z M138.107,89.205
	c-12.521,0-22.672,10.15-22.672,22.671c0,12.521,10.151,22.671,22.672,22.671s22.67-10.149,22.67-22.671
	C160.777,99.355,150.629,89.205,138.107,89.205z M138.107,89.205c-12.521,0-22.672,10.15-22.672,22.671
	c0,12.521,10.151,22.671,22.672,22.671s22.67-10.149,22.67-22.671C160.777,99.355,150.629,89.205,138.107,89.205z M138.107,89.205
	c-12.521,0-22.672,10.15-22.672,22.671c0,12.521,10.151,22.671,22.672,22.671s22.67-10.149,22.67-22.671
	C160.777,99.355,150.629,89.205,138.107,89.205z M138.107,89.205c-12.521,0-22.672,10.15-22.672,22.671
	c0,12.521,10.151,22.671,22.672,22.671s22.67-10.149,22.67-22.671C160.777,99.355,150.629,89.205,138.107,89.205z M219.912,72.36
	c-2.703-0.927-5.43-1.786-8.174-2.575c0.455-1.851,0.877-3.709,1.262-5.575c6.188-30.033,2.143-54.226-11.67-62.191
	c-13.246-7.638-34.906,0.327-56.783,19.364c-2.156,1.88-4.264,3.814-6.322,5.802c-1.379-1.321-2.781-2.617-4.207-3.886
	C111.09,2.942,88.109-5.636,74.311,2.353c-13.232,7.659-17.151,30.404-11.582,58.865c0.554,2.819,1.18,5.623,1.876,8.41
	c-3.252,0.924-6.392,1.908-9.396,2.955c-26.88,9.371-44.046,24.059-44.046,39.293c0,15.735,18.427,31.517,46.426,41.085
	c2.27,0.773,4.56,1.489,6.866,2.147c-0.749,3.002-1.415,6.024-1.995,9.063c-5.31,27.969-1.162,50.174,12.034,57.788
	c13.63,7.858,36.507-0.221,58.784-19.693c1.762-1.539,3.527-3.171,5.299-4.882c2.229,2.149,4.518,4.238,6.861,6.261
	c21.58,18.568,42.891,26.067,56.076,18.434c13.617-7.883,18.043-31.74,12.297-60.763c-0.439-2.219-0.949-4.48-1.523-6.786
	c1.607-0.475,3.184-0.965,4.721-1.475c29.107-9.644,48.043-25.233,48.043-41.179C265.051,96.585,247.332,81.799,219.912,72.36z
	 M151.666,29.566c18.746-16.313,36.264-22.753,44.246-18.15c8.5,4.904,11.807,24.675,6.467,50.606
	c-0.352,1.689-0.732,3.372-1.145,5.047c-10.531-2.43-21.969-4.239-33.943-5.363c-6.977-9.933-14.207-18.966-21.463-26.784
	C147.73,33.088,149.676,31.302,151.666,29.566z M86.127,124.89c2.295,4.434,4.696,8.813,7.197,13.139
	c2.553,4.406,5.211,8.754,7.972,13.037c-8.316-0.928-16.157-2.186-23.398-3.762C80.14,140.064,82.901,132.54,86.127,124.89z
	 M86.115,99.381c-3.158-7.49-5.861-14.857-8.067-21.969c7.244-1.621,14.969-2.945,23.018-3.951
	c-2.695,4.202-5.29,8.466-7.784,12.791C90.791,90.571,88.401,94.949,86.115,99.381z M91.88,112.137
	c3.342-6.956,6.944-13.784,10.799-20.469v0.002c3.854-6.687,7.96-13.223,12.311-19.597c7.55-0.571,15.291-0.87,23.117-0.87
	c7.861,0,15.613,0.301,23.162,0.876c4.307,6.365,8.385,12.879,12.232,19.531c3.869,6.67,7.52,13.465,10.945,20.372
	c-3.391,6.978-7.029,13.832-10.91,20.551l0,0c-3.846,6.682-7.908,13.236-12.18,19.653c-7.533,0.537-15.318,0.814-23.25,0.814
	c-7.9,0-15.586-0.245-22.987-0.726c-4.383-6.402-8.521-12.967-12.409-19.683C98.843,125.913,95.23,119.09,91.88,112.137z
	 M182.932,137.952c2.555-4.431,5.01-8.914,7.363-13.452c3.395,7.734,6.254,15.217,8.527,22.335
	c-7.361,1.679-15.311,3.032-23.684,4.035C177.822,146.616,180.422,142.309,182.932,137.952z M190.191,99.389
	c-2.346-4.452-4.779-8.856-7.303-13.212c-2.482-4.287-5.055-8.521-7.721-12.697c8.102,1.022,15.863,2.381,23.15,4.046
	C196.131,84.539,193.402,91.872,190.191,99.389z M138.229,42.678c5.002,5.419,10.012,11.471,14.939,18.036
	c-9.996-0.473-20.01-0.474-30.006-0.007C128.095,54.202,133.146,48.159,138.229,42.678z M79.744,11.738
	c8.495-4.917,27.276,2.095,47.073,19.671c1.265,1.125,2.535,2.3,3.809,3.518c-7.376,7.92-14.665,16.937-21.627,26.765
	c-11.941,1.106-23.372,2.883-33.879,5.266c-0.647-2.594-1.229-5.201-1.746-7.824C68.601,34.749,71.77,16.354,79.744,11.738z
	 M67.364,144.66c-2.106-0.602-4.195-1.256-6.268-1.962c-12.381-4.231-22.604-9.731-29.612-15.729
	c-6.296-5.395-9.477-10.748-9.477-15.093c0-9.245,13.785-21.037,36.772-29.052c2.886-1.001,5.799-1.918,8.739-2.75
	c3.177,10.335,7.344,21.14,12.374,32.064C74.797,123.229,70.571,134.204,67.364,144.66z M126.141,194.1
	c-9.851,8.61-19.722,14.718-28.42,17.792h-0.001c-7.817,2.76-14.043,2.84-17.806,0.669c-8.009-4.617-11.338-22.449-6.797-46.366
	c0.54-2.825,1.158-5.637,1.854-8.429c10.399,2.3,21.911,3.955,34.214,4.953c7.024,9.885,14.38,18.969,21.795,26.927
	C129.402,191.17,127.79,192.654,126.141,194.1z M138.529,181.84c-5.143-5.548-10.269-11.682-15.276-18.28
	c4.859,0.189,9.817,0.287,14.854,0.287c5.174,0,10.291-0.116,15.326-0.341C148.49,170.225,143.496,176.368,138.529,181.84z
	 M204.391,196.932c-1.514,8.149-4.553,13.583-8.313,15.76c-8.002,4.632-25.113-1.389-43.564-17.268
	c-2.117-1.82-4.248-3.765-6.385-5.82c7.154-7.825,14.303-16.923,21.281-27.022c12.273-1.091,23.871-2.87,34.387-5.301
	c0.516,2.091,0.977,4.138,1.373,6.142C205.711,176.256,206.072,187.859,204.391,196.932z M213.598,142.759L213.598,142.759
	c-1.389,0.461-2.813,0.904-4.266,1.335c-3.213-10.174-7.549-20.99-12.855-32.164c5.064-10.91,9.232-21.588,12.357-31.695
	c2.596,0.753,5.117,1.545,7.547,2.382c23.494,8.086,37.824,20.045,37.824,29.259C254.205,121.689,238.729,134.433,213.598,142.759z
	 M138.107,134.547c12.521,0,22.67-10.149,22.67-22.671c0-12.521-10.148-22.671-22.67-22.671s-22.672,10.15-22.672,22.671
	C115.435,124.397,125.586,134.547,138.107,134.547z M138.107,89.205c-12.521,0-22.672,10.15-22.672,22.671
	c0,12.521,10.151,22.671,22.672,22.671s22.67-10.149,22.67-22.671C160.777,99.355,150.629,89.205,138.107,89.205z M138.107,89.205
	c-12.521,0-22.672,10.15-22.672,22.671c0,12.521,10.151,22.671,22.672,22.671s22.67-10.149,22.67-22.671
	C160.777,99.355,150.629,89.205,138.107,89.205z M138.107,89.205c-12.521,0-22.672,10.15-22.672,22.671
	c0,12.521,10.151,22.671,22.672,22.671s22.67-10.149,22.67-22.671C160.777,99.355,150.629,89.205,138.107,89.205z M138.107,89.205
	c-12.521,0-22.672,10.15-22.672,22.671c0,12.521,10.151,22.671,22.672,22.671s22.67-10.149,22.67-22.671
	C160.777,99.355,150.629,89.205,138.107,89.205z M138.107,89.205c-12.521,0-22.672,10.15-22.672,22.671
	c0,12.521,10.151,22.671,22.672,22.671s22.67-10.149,22.67-22.671C160.777,99.355,150.629,89.205,138.107,89.205z M138.107,89.205
	c-12.521,0-22.672,10.15-22.672,22.671c0,12.521,10.151,22.671,22.672,22.671s22.67-10.149,22.67-22.671
	C160.777,99.355,150.629,89.205,138.107,89.205z"/>
<path fill="#61DAFB" d="M160.777,111.876c0,12.521-10.148,22.671-22.67,22.671c-12.521,0-22.672-10.149-22.672-22.671
	c0-12.521,10.151-22.671,22.672-22.671S160.777,99.355,160.777,111.876z"/>
<path fill="#61DAFB" d="M160.777,111.876c0,12.521-10.148,22.671-22.67,22.671c-12.521,0-22.672-10.149-22.672-22.671
	c0-12.521,10.151-22.671,22.672-22.671S160.777,99.355,160.777,111.876z"/>
</svg>
