<?xml version="1.0" encoding="utf-8"?>
<!-- Generator: Adobe Illustrator 16.0.0, SVG Export Plug-In . SVG Version: 6.00 Build 0)  -->
<!DOCTYPE svg PUBLIC "-//W3C//DTD SVG 1.1//EN" "http://www.w3.org/Graphics/SVG/1.1/DTD/svg11.dtd">
<svg version="1.1" id="Layer_1" xmlns="http://www.w3.org/2000/svg" xmlns:xlink="http://www.w3.org/1999/xlink" x="0px" y="0px"
	 width="279.257px" height="266.167px" viewBox="0 -22.167 279.257 266.167" enable-background="new 0 -22.167 279.257 266.167"
	 xml:space="preserve">
<path fill="#FFFFFF" d="M-527.634,61.34c-0.011-0.022-0.022-0.033-0.022-0.056l0.012-0.012
	C-527.645,61.272-527.634,61.295-527.634,61.34z"/>
<g>
	<path fill="#FFFFFF" d="M269.73,200.2c-18.58,38.88-72.9,51.649-121.32,28.51c-2.561-1.22-5.05-2.52-7.47-3.89
		c-3.96,2.27-8.11,4.34-12.44,6.199C79.18,252.17,25.43,237.21,8.44,197.6c-15.76-36.75,5.64-81.8,48.2-105.01
		c-0.63-5.9-0.82-11.97-0.54-18.16c2.43-53.61,39.31-95.48,82.37-93.53c43.061,1.95,75.99,46.99,73.561,100.6
		c-0.07,1.53-0.17,3.05-0.3,4.56c1.34,0.58,2.67,1.18,4,1.82C264.14,111.02,288.32,161.31,269.73,200.2z"/>
	<g>
		<path fill="#764ABC" d="M189.324,160.451c9.447-0.977,16.613-9.121,16.289-18.895c-0.326-9.773-8.471-17.593-18.244-17.593h-0.65
			c-10.1,0.325-17.918,8.796-17.592,18.896c0.324,4.887,2.279,9.121,5.211,12.054c-11.076,21.827-28.016,37.791-53.426,51.147
			c-17.266,9.123-35.184,12.381-53.101,10.1c-14.66-1.955-26.062-8.471-33.229-19.221c-10.424-15.963-11.402-33.23-2.606-50.496
			c6.189-12.381,15.963-21.502,22.152-26.063c-1.303-4.236-3.258-11.402-4.235-16.615c-47.237,34.207-42.35,80.469-28.017,102.295
			c10.75,16.289,32.577,26.389,56.684,26.389c6.516,0,13.031-0.651,19.546-2.28C139.807,222.024,171.406,197.266,189.324,160.451z
			 M246.66,120.055C221.9,91.06,185.414,75.096,143.717,75.096h-5.213c-2.932-5.864-9.122-9.773-15.963-9.773h-0.652
			c-10.099,0.326-17.917,8.796-17.591,18.896c0.326,9.773,8.47,17.592,18.243,17.592h0.651c7.167-0.326,13.356-4.887,15.963-11.077
			h5.864c24.758,0,48.213,7.167,69.389,21.176c16.289,10.75,28.016,24.76,34.531,41.699c5.539,13.684,5.213,27.041-0.65,38.443
			c-9.121,17.266-24.434,26.714-44.631,26.714c-13.031,0-25.41-3.909-31.926-6.841c-3.584,3.258-10.1,8.47-14.66,11.728
			c14.008,6.516,28.342,10.099,42.025,10.099c31.273,0,54.402-17.266,63.199-34.532C271.744,180.324,271.092,147.746,246.66,120.055
			z M81.168,165.99c0.326,9.773,8.47,17.592,18.243,17.592h0.651c10.099-0.326,17.917-8.796,17.592-18.896
			c-0.326-9.773-8.47-17.593-18.243-17.593H98.76c-0.652,0-1.629,0-2.281,0.326c-13.356-22.152-18.895-46.261-16.94-72.324
			C80.842,55.549,87.357,38.609,98.76,24.6c9.447-12.054,27.69-17.918,40.069-18.244c34.532-0.652,49.192,42.352,50.169,59.618
			c4.234,0.977,11.402,3.258,16.289,4.887c-3.91-52.777-36.486-80.143-67.761-80.143c-29.319,0-56.358,21.176-67.109,52.451
			c-14.985,41.7-5.212,81.771,13.031,113.372C81.819,158.822,80.842,162.406,81.168,165.99z"/>
	</g>
</g>
</svg>
